<?xml version="1.0" encoding="UTF-8"?>
<!DOCTYPE svg PUBLIC "-//W3C//DTD SVG 1.1//EN" "http://www.w3.org/Graphics/SVG/1.1/DTD/svg11.dtd">
<!-- Creator: CorelDRAW X6 -->
<svg xmlns="http://www.w3.org/2000/svg" xml:space="preserve" width="6.875in" height="6.75in" version="1.1" style="shape-rendering:geometricPrecision; text-rendering:geometricPrecision; image-rendering:optimizeQuality; fill-rule:evenodd; clip-rule:evenodd"
viewBox="0 0 6875 6750"
 xmlns:xlink="http://www.w3.org/1999/xlink">
 <defs>
  <style type="text/css">
   <![CDATA[
    .fil5 {fill:#694872;fill-rule:nonzero}
    .fil3 {fill:#6A3363;fill-rule:nonzero}
    .fil1 {fill:#9261A1;fill-rule:nonzero}
    .fil6 {fill:#943D7D;fill-rule:nonzero}
    .fil4 {fill:#9D4465;fill-rule:nonzero}
    .fil2 {fill:#A2A5A9;fill-rule:nonzero}
    .fil0 {fill:#EF5A8B;fill-rule:nonzero}
    .fil7 {fill:#FEFEFE;fill-rule:nonzero}
   ]]>
  </style>
 </defs>
 <g id="Layer_x0020_1">
  <metadata id="CorelCorpID_0Corel-Layer"/>
  <path class="fil0" d="M6332 5244l2 0 543 -172 -717 -2284 -1 -4 -72 511 0 9 245 1940zm-1049 -5254l0 0 -1292 411 -5 2 495 70 7 1 904 -138c0,0 -1,-3 -1,-3l-107 -342zm-5283 1679l402 1282 2 4 -220 -1344 -3 1 -181 58zm1499 4778l-1 -6 2251 -382 20 0 -2174 691 -95 -303z"/>
  <path class="fil1" d="M3166 666l835 -263 -10 -2 -2583 -366 -134 943 1818 -287c15,-4 74,-24 74,-24zm2994 2126l-233 -741 0 -8 -180 -1393 4 1 699 99 -289 2037 -1 5z"/>
  <path class="fil2" d="M812 4237l-400 -1263 -9 -23 318 1930 89 -630 2 -14zm464 -3272l-1172 180 77 466 1 3 1050 -337 44 -312zm5058 4278l-1 -3 -546 172 0 4 -43 303 637 -109 -47 -368zm-5590 -217l249 1508 506 -87 4 -1 -436 -1374 -323 -46zm5007 -4374l-265 -38 -9 -1 -88 -281 1 -1 314 -48 47 367 0 2z"/>
  <path class="fil3" d="M6088 3291l-156 -1232 -3 -13 -2 -10 -444 -1416 -5 -8 -6 -3 -972 -138 -14 0 -16 0 -1358 210 -16 4c0,0 -1346,372 -1346,372l-956 0 -8 4876 4295 0 706 -516 1 -1 299 -2110 0 -6 0 -9z"/>
  <path class="fil4" d="M5787 5417l547 -174 -247 -1943 -300 2117zm-4921 -1562l-106 -2428c0,0 -578,184 -578,184l221 1340 408 1300 56 -396zm4612 -3244l-88 -280 -904 139 992 141zm-397 5030l-1313 417 -2269 389 -431 -1375 4013 569z"/>
  <polygon class="fil5" points="1259,1269 3097,685 1276,965 1234,1265 "/>
  <path class="fil6" d="M4486 471l-495 -70 -894 284 1389 -214zm1442 1576l232 740 -73 514 -159 -1254z"/>
  <polygon class="fil5" points="5478,612 5751,650 5928,2047 "/>
  <path class="fil7" d="M5149 2616l-22 -134c-59,5 -107,46 -137,93l-13 -81 -109 0 0 552 133 0 0 -351c31,-41 86,-74 147,-79zm-577 2161l280 0c1,-3 1,-40 1,-49 0,-153 -58,-276 -200,-276 -136,0 -213,126 -213,287 0,185 81,288 231,288 72,0 137,-24 182,-54l-17 -103c-49,34 -99,52 -146,52 -72,0 -110,-50 -118,-145zm-218 -208l84 -6 -17 -107 -116 43c-35,-30 -81,-47 -131,-47 -111,0 -197,75 -197,191 0,75 37,131 91,164 -38,30 -55,58 -55,88 0,22 9,40 26,54 -61,37 -93,82 -93,135 0,96 105,141 229,141 133,0 247,-65 247,-178 0,-94 -55,-130 -240,-161 -37,-8 -49,-16 -49,-30 0,-8 1,-16 5,-24 11,1 23,2 35,2 109,0 196,-75 196,-190 0,-27 -6,-53 -15,-74zm-430 59c0,-125 -55,-176 -170,-176 -73,0 -128,18 -184,43l17 107c49,-27 95,-45 135,-45 47,0 71,21 71,77l0 26c-157,24 -257,86 -257,214 0,102 57,152 133,152 56,0 100,-27 138,-67l9 56 109 0 0 -388zm-418 388l-17 -110c-10,2 -26,3 -40,3 -42,0 -57,-21 -57,-59l0 -274 111 0 -17 -112 -94 0 0 -197 -128 19 0 177 -67 0 0 112 67 0 0 293c0,119 57,157 162,157 34,0 62,-5 80,-9zm-213 -976c34,0 62,-5 80,-9l-17 -110c-10,2 -26,3 -40,3 -42,0 -57,-21 -57,-59l0 -274 111 0 -17 -112 -94 0 0 -197 -128 19 0 177 -67 0 0 112 67 0 0 293c0,119 57,157 162,157zm-126 258c0,-43 -33,-78 -77,-78 -43,0 -78,34 -78,78 0,43 34,78 78,78 43,0 77,-34 77,-78zm-10 166l-133 0 0 552 133 0 0 -552zm-171 122l-22 -134c-60,5 -108,46 -137,93l-12 -81 -109 0 0 552 133 0 0 -351c31,-41 86,-74 148,-79zm-284 -573l-207 -773 -167 0 -214 791 144 0 47 -201 200 0 50 209 146 -26zm-331 764l280 0c1,-3 1,-40 1,-49 0,-153 -58,-276 -200,-276 -136,0 -213,126 -213,287 0,185 81,288 231,288 72,0 137,-24 182,-54l-17 -103c-49,34 -100,52 -146,52 -72,0 -110,-50 -118,-145zm-185 -550l-146 0 0 311 -205 0 0 -311 -146 0 0 789 146 0 0 -348 205 0 0 348 146 0 0 -789zm-441 -473c0,-184 -90,-287 -223,-287 -133,0 -222,104 -222,288 0,184 88,287 221,287 133,0 224,-103 224,-288zm-162 1244l-134 -179c27,-67 47,-150 57,-245l-114 -25c-6,62 -15,114 -25,160l-126 -170c-41,-54 -59,-87 -59,-129 0,-50 30,-79 74,-79 39,0 78,17 123,50l21 -126c-44,-26 -90,-43 -158,-43 -129,0 -196,82 -196,190 0,64 18,113 65,178 -86,51 -145,131 -145,238 0,126 82,213 215,213 79,0 145,-33 197,-94l65 86 139 -24zm-691 -3597l174 0 0 660 146 0 0 -660 185 0 -21 -129 -485 0 0 129zm626 1102c0,-160 -104,-246 -269,-246l-183 0 0 789 145 0 0 -290 29 0c170,-2 278,-89 278,-253zm-327 976l0 -86c0,-47 19,-67 62,-67 19,0 35,2 50,5l-18 -109c-15,-3 -33,-6 -63,-6 -94,0 -158,49 -158,158l0 105 -69 0 0 112 69 0 0 440 127 0 0 -440 107 0 -19 -112 -88 0zm252 -1417l133 0 0 -401c26,-26 58,-45 87,-45 31,0 45,22 45,53l0 393 133 0 0 -430c0,-85 -45,-134 -129,-134 -53,0 -98,26 -135,58l0 -320 -133 21 0 805zm293 421c-136,0 -213,126 -213,287 0,185 81,288 231,288 72,0 137,-24 182,-54l-17 -103c-49,34 -99,51 -146,51 -72,0 -110,-50 -118,-145l280 0c1,-3 1,-40 1,-49 0,-153 -58,-276 -200,-276zm149 -698c0,185 81,288 231,288 72,0 137,-24 182,-54l-17 -103c-49,34 -99,51 -146,51 -72,0 -110,-50 -118,-145l280 0c1,-3 1,-40 1,-49 0,-153 -58,-276 -200,-276 -136,0 -213,126 -213,287zm168 1683c-59,5 -107,46 -137,93l-13 -81 -109 0 0 552 133 0 0 -351c31,-41 86,-74 148,-79l-22 -134zm278 -973l-126 0 -66 374 -74 -382 -129 17 134 543 121 0 72 -379 70 379 124 0 134 -552 -121 0 -70 373 -67 -373zm671 973c-59,5 -108,46 -137,93l-13 -81 -109 0 0 552 133 0 0 -351c31,-41 86,-74 148,-79l-22 -134zm-314 -814c0,242 93,407 287,407 73,0 132,-23 184,-57l-21 -129c-53,40 -93,61 -143,61 -108,0 -160,-110 -160,-283 0,-171 49,-282 150,-282 56,0 91,17 141,55l21 -131c-47,-31 -100,-49 -173,-49 -190,0 -286,168 -286,409zm492 117c0,185 81,288 231,288 72,0 137,-24 182,-54l-17 -103c-49,34 -100,51 -146,51 -72,0 -110,-50 -118,-145l280 0c1,-3 1,-40 1,-49 0,-153 -58,-276 -200,-276 -136,0 -213,126 -213,287zm472 1116c0,29 -23,50 -64,50 -49,0 -97,-19 -158,-56l-18 114c48,29 113,48 176,48 119,0 188,-69 188,-165 0,-89 -57,-136 -149,-181 -61,-29 -83,-53 -83,-80 0,-29 22,-45 51,-45 41,0 81,15 130,41l18 -112c-43,-22 -94,-34 -153,-34 -106,0 -169,71 -169,156 0,88 54,132 141,174 65,31 90,57 90,89zm-8 -840l133 0 0 -401c26,-26 57,-45 87,-45 31,0 45,22 45,53l0 393 133 0 0 -430c0,-85 -45,-134 -130,-134 -58,0 -108,32 -147,71l-10 -59 -109 0 0 552zm440 -440l67 0 0 293c0,119 57,157 162,157 34,0 62,-5 80,-9l-17 -110c-10,2 -26,3 -40,3 -42,0 -57,-21 -57,-60l0 -274 111 0 -17 -112 -94 0 0 -197 -128 19 0 177 -67 0 0 112zm321 164c0,185 81,288 231,288 72,0 137,-24 182,-54l-17 -103c-49,34 -99,51 -146,51 -72,0 -110,-50 -118,-145l280 0c1,-3 1,-40 1,-49 0,-153 -58,-276 -200,-276 -136,0 -213,126 -213,287zm1385 -1829l0 5119 -5119 0 0 -5119 5119 0zm-1615 3597c-46,0 -71,41 -71,105 0,63 26,104 71,104 43,0 71,-40 71,-104 0,-64 -29,-105 -71,-105zm-513 325c0,39 19,63 49,63 30,0 56,-17 84,-45l0 -137c-100,19 -133,67 -133,119zm450 118l-1 0c-25,25 -39,53 -39,80 0,51 40,80 118,80 66,0 111,-29 111,-70 0,-39 -25,-58 -155,-82 -10,-1 -23,-5 -33,-7l0 -1zm542 -433c-43,0 -73,47 -80,142l155 0c-2,-88 -29,-142 -75,-142zm-2558 -2954c-43,0 -73,47 -80,142l156 0c-2,-88 -29,-142 -76,-142zm238 2118l145 0 -72 -301 -73 301zm-679 -992l155 0c-2,-88 -29,-142 -75,-142 -43,0 -73,47 -80,142zm1735 -142c-43,0 -73,47 -80,142l156 0c-2,-88 -29,-142 -76,-142zm1226 0c-43,0 -73,47 -80,142l156 0c-2,-88 -29,-142 -76,-142zm-3094 1000c-61,0 -90,73 -90,177 0,105 31,178 92,178 61,0 91,-72 91,-177 0,-104 -32,-178 -93,-178zm931 970c-43,0 -73,47 -80,142l156 0c-2,-88 -29,-142 -75,-142zm-1206 -2172l-35 0 0 262 32 0c90,0 136,-44 136,-132 0,-85 -43,-130 -133,-130zm-73 2288l141 188c-30,48 -67,70 -110,70 -62,0 -101,-47 -101,-119 0,-57 26,-103 70,-138z"/>
 </g>
</svg>
