<svg xmlns="http://www.w3.org/2000/svg" viewBox="0 0 276.5 134.9"><defs><style>.a{fill:#1f656d;}.b{fill:#b8852c;}.c{fill:none;stroke:#e34e25;stroke-miterlimit:10;stroke-width:3px;}.d{fill:#fff;}</style></defs><title>pfsv_final</title><rect class="a" width="134.9" height="134.9"/><rect class="b" x="141.6" width="134.9" height="134.9"/><line class="c" x1="130" y1="14.1" x2="146.5" y2="14.1"/><line class="c" x1="130" y1="19.8" x2="146.5" y2="19.8"/><line class="c" x1="130" y1="115" x2="146.5" y2="115"/><line class="c" x1="130" y1="120.7" x2="146.5" y2="120.7"/><path class="d" d="M226.5,166a.37.37,0,0,1,.3-.1h11.4a.37.37,0,0,1,.4.4v2.3c0,.4-.2.5-.5.5h-6.7c-.2,0-.3,0-.4.1a.37.37,0,0,0-.1.3v2.7c0,.3.1.4.4.4h4.4c.3,0,.4.1.4.4v2.4c0,.2-.1.3-.4.3h-4.4a.27.27,0,0,0-.3.3v5.6c0,.2-.1.4-.2.4a.75.75,0,0,1-.5.1H227c-.2,0-.3,0-.4-.1s-.1-.2-.1-.4V166.2C226.4,166.2,226.4,166.1,226.5,166Z" transform="translate(-69.5 -144)"/><path class="d" d="M238.8,182.1c-.1-.1-.1-.2-.1-.4V171c0-.3.1-.5.4-.5h3a.35.35,0,0,1,.4.4v1.3a.22.22,0,0,0,.2.2c.1,0,.1,0,.2-.1a5,5,0,0,1,1.5-1.4,3.19,3.19,0,0,1,1.7-.6c.5,0,.8.1.8.4v2.9c0,.3-.1.4-.4.3a11.13,11.13,0,0,0-1.7-.2,3,3,0,0,0-1.5.5,1.31,1.31,0,0,0-.7,1.2v6.1c0,.2-.1.4-.2.4a.75.75,0,0,1-.5.1h-2.7C239,182.2,238.9,182.2,238.8,182.1Z" transform="translate(-69.5 -144)"/><path class="d" d="M252.4,168.8a.76.76,0,0,1-.2.5.75.75,0,0,1-.5.1h-2.8c-.2,0-.3,0-.4-.1s-.1-.2-.1-.4v-2.5a.6.6,0,0,1,.1-.4.37.37,0,0,1,.3-.1H252a.35.35,0,0,1,.4.4v2.5Zm-.1,12.8a.76.76,0,0,1-.2.5.75.75,0,0,1-.5.1h-2.7c-.2,0-.3,0-.4-.1s-.1-.2-.1-.4V171c0-.3.1-.5.4-.5h3.1a.37.37,0,0,1,.4.4Z" transform="translate(-69.5 -144)"/><path class="d" d="M258.7,179.2a3,3,0,0,0,3.1.3,5,5,0,0,0,1.3-1c.1-.1.1-.1.2-.1h.2l1.8.7c.1.1.2.1.2.2s0,.1-.1.2a5.93,5.93,0,0,1-2.3,2.2,7.14,7.14,0,0,1-3.1.6,6.43,6.43,0,0,1-3.1-.7,5.56,5.56,0,0,1-2.2-2.1,6.11,6.11,0,0,1-.8-3,6.6,6.6,0,0,1,.8-3.2,5.81,5.81,0,0,1,2.2-2.2,6.11,6.11,0,0,1,3-.8,5.79,5.79,0,0,1,3,.7,5.3,5.3,0,0,1,2.1,2.1,7,7,0,0,1,.7,3.3c0,.2,0,.3-.1.4s-.1.1-.3.1h-7.1c-.2,0-.3.1-.3.4A2.59,2.59,0,0,0,258.7,179.2Zm2.9-4.2a.37.37,0,0,0,.3-.1c.1-.1.1-.1.1-.3a2.39,2.39,0,0,0-.5-1.4,1.75,1.75,0,0,0-1.4-.7,2,2,0,0,0-1.5.6,2.35,2.35,0,0,0-.6,1.7Z" transform="translate(-69.5 -144)"/><path class="d" d="M267.5,182.1c-.1-.1-.1-.2-.1-.4V171c0-.3.1-.5.4-.5h3.1a.37.37,0,0,1,.4.4V172c0,.1,0,.2.1.2a.31.31,0,0,0,.2-.1,4.84,4.84,0,0,1,3.6-1.8,3.17,3.17,0,0,1,2.5,1,3.62,3.62,0,0,1,1,2.6v7.8a.53.53,0,0,1-.6.6h-2.8c-.2,0-.3,0-.4-.1s-.1-.2-.1-.4v-7.3a1,1,0,0,0-.4-.9,1.49,1.49,0,0,0-1-.3,2,2,0,0,0-1.1.3,3.82,3.82,0,0,0-.9.9v7.3c0,.2-.1.4-.2.4a.75.75,0,0,1-.5.1H268C267.7,182.2,267.6,182.2,267.5,182.1Z" transform="translate(-69.5 -144)"/><path class="d" d="M288.1,181.8v-.6H288a.31.31,0,0,0-.2.1,7.1,7.1,0,0,1-1.4,1,4.84,4.84,0,0,1-1.8.3,4.27,4.27,0,0,1-3.3-1.5,7,7,0,0,1-1.2-4.4,7.94,7.94,0,0,1,.6-3.2,6.2,6.2,0,0,1,1.7-2.2,3.49,3.49,0,0,1,2.4-.8,3.34,3.34,0,0,1,1.5.3,5.08,5.08,0,0,1,1.3.9.37.37,0,0,0,.3.1c.1,0,.2-.1.2-.3v-5c0-.3.1-.4.4-.4h3.1c.3,0,.4.2.4.5V182c0,.2,0,.3-.1.4s-.2.1-.4.1h-2.8C288.3,182.2,288.1,182.1,288.1,181.8Zm-.9-8.8a1.64,1.64,0,0,0-1-.2,1.8,1.8,0,0,0-1.6.9,5.06,5.06,0,0,0-.6,2.8,6.35,6.35,0,0,0,.5,2.8,1.62,1.62,0,0,0,1.6.8,2.11,2.11,0,0,0,1.3-.5,1.35,1.35,0,0,0,.5-1.2v-4.6A1.85,1.85,0,0,0,287.2,173Z" transform="translate(-69.5 -144)"/><path class="d" d="M298.9,172.6a2.13,2.13,0,0,0-1.2.3c-.3.2-.5.4-.5.7a.52.52,0,0,0,.2.4,2.19,2.19,0,0,0,.8.3l2.4.6a5,5,0,0,1,2.7,1.4,3.09,3.09,0,0,1,.8,2.3,3.22,3.22,0,0,1-1.5,2.8,6.65,6.65,0,0,1-3.9,1,7.39,7.39,0,0,1-3.4-.7,4.25,4.25,0,0,1-2-1.7.37.37,0,0,1-.1-.3c0-.1.1-.2.2-.3l1.7-.9a.5.5,0,0,1,.6,0,3.78,3.78,0,0,0,1.2,1,4.36,4.36,0,0,0,1.8.4,2.65,2.65,0,0,0,1.4-.3c.4-.2.6-.4.6-.7a.55.55,0,0,0-.3-.5,3.36,3.36,0,0,0-1-.4l-2.2-.4c-2.3-.5-3.5-1.6-3.5-3.5a3.61,3.61,0,0,1,.6-2,4.36,4.36,0,0,1,1.8-1.4,7.78,7.78,0,0,1,2.8-.5,6.53,6.53,0,0,1,2.9.6,3.93,3.93,0,0,1,1.8,1.5.76.76,0,0,1,.2.4.22.22,0,0,1-.2.2l-1.8.9a.35.35,0,0,0-.2.1.76.76,0,0,1-.4-.2A2.71,2.71,0,0,0,298.9,172.6Z" transform="translate(-69.5 -144)"/><path class="d" d="M239.3,210.8a4.63,4.63,0,0,1-2.1,1.8,7.79,7.79,0,0,1-3.1.6H231c-.2,0-.2.1-.2.2v5.2c0,.2-.1.4-.2.4a4.33,4.33,0,0,1-.5.1h-3.3c-.2,0-.3,0-.4-.1s-.1-.2-.1-.4V203.2c0-.3.1-.5.4-.5h7a8.81,8.81,0,0,1,3.3.6,5.15,5.15,0,0,1,2.3,1.7,4.56,4.56,0,0,1,.9,2.9A7.09,7.09,0,0,1,239.3,210.8Zm-4.4-4.2a2.2,2.2,0,0,0-1.6-.5h-2.2c-.2,0-.3,0-.4.1a.37.37,0,0,0-.1.3v3.1c0,.2,0,.3.1.3s.1.1.3.1h2.4a1.89,1.89,0,0,0,1.5-.6,2,2,0,0,0,.6-1.5A1.61,1.61,0,0,0,234.9,206.6Z" transform="translate(-69.5 -144)"/><path class="d" d="M245.3,216.2a3,3,0,0,0,3.1.3,5,5,0,0,0,1.3-1c.1-.1.1-.1.2-.1h.2l1.8.7c.1.1.2.1.2.2s0,.1-.1.2a5.93,5.93,0,0,1-2.3,2.2,7.14,7.14,0,0,1-3.1.6,6.43,6.43,0,0,1-3.1-.7,5.56,5.56,0,0,1-2.2-2.1,6.11,6.11,0,0,1-.8-3,6.6,6.6,0,0,1,.8-3.2,5.81,5.81,0,0,1,2.2-2.2,6.11,6.11,0,0,1,3-.8,5.79,5.79,0,0,1,3,.7,5.3,5.3,0,0,1,2.1,2.1,7,7,0,0,1,.7,3.3c0,.2,0,.3-.1.4s-.1.1-.3.1h-7.1c-.2,0-.3.1-.3.4A2.59,2.59,0,0,0,245.3,216.2Zm3-4.2a.37.37,0,0,0,.3-.1c.1-.1.1-.1.1-.3a2.39,2.39,0,0,0-.5-1.4,1.75,1.75,0,0,0-1.4-.7,2,2,0,0,0-1.5.6,2.35,2.35,0,0,0-.6,1.7Z" transform="translate(-69.5 -144)"/><path class="d" d="M257,219.4a3.57,3.57,0,0,1-2.6-.9,3.26,3.26,0,0,1-1-2.3,3.49,3.49,0,0,1,.8-2.2,5.75,5.75,0,0,1,2.3-1.5,9.56,9.56,0,0,1,3.5-.5h.4c.2,0,.4-.1.4-.3v-.4a1.25,1.25,0,0,0-.4-1.1,1.59,1.59,0,0,0-1.2-.4,2,2,0,0,0-1.1.3,2.36,2.36,0,0,0-.8.9.35.35,0,0,1-.3.3h-.2l-2.6-.5c-.1,0-.2-.1-.2-.3a.76.76,0,0,1,.1-.4c.7-1.7,2.5-2.6,5.4-2.6a5.89,5.89,0,0,1,3.9,1,3.16,3.16,0,0,1,1.2,2.7v7.7c0,.2,0,.4-.1.4s-.2.1-.4.1h-2.7a.52.52,0,0,1-.4-.2c-.1-.1-.1-.3-.2-.5v-.3a.22.22,0,0,0-.2-.2c-.1,0-.2.1-.4.2A5.78,5.78,0,0,1,257,219.4Zm3.7-5.5c-.1-.1-.1-.1-.3-.1H260a6.88,6.88,0,0,0-1.3.2,3.88,3.88,0,0,0-1.1.6,1.23,1.23,0,0,0-.5,1,1,1,0,0,0,.4.9,1.8,1.8,0,0,0,1.1.3,3,3,0,0,0,1.5-.5c.4-.4.6-.7.6-1V214C260.8,214,260.8,213.9,260.7,213.9Z" transform="translate(-69.5 -144)"/><path class="d" d="M274.5,207.9a4.53,4.53,0,0,1,1.7,1.3,5.56,5.56,0,0,1,.9,1.7v.2c0,.2-.1.3-.4.3l-2.7.2h-.1c-.1,0-.2-.1-.2-.3a5.42,5.42,0,0,0-.6-1.1,1.25,1.25,0,0,0-1.1-.4,1.8,1.8,0,0,0-1.6.9,4.91,4.91,0,0,0-.6,2.7c0,2.4.8,3.6,2.3,3.6a2.12,2.12,0,0,0,1.4-.4,4.2,4.2,0,0,0,1-1.4.1.1,0,0,1,.1-.1h.3l1.8.4a.22.22,0,0,1,.2.2v.2a3.68,3.68,0,0,1-.8,1.5,6.06,6.06,0,0,1-1.7,1.4,5.26,5.26,0,0,1-2.6.6,6.5,6.5,0,0,1-3.1-.8,5.3,5.3,0,0,1-2.1-2.1,6.5,6.5,0,0,1-.8-3.1,6.9,6.9,0,0,1,.8-3.2,6.3,6.3,0,0,1,2.1-2.2,5.33,5.33,0,0,1,3.1-.8A6.66,6.66,0,0,1,274.5,207.9Z" transform="translate(-69.5 -144)"/><path class="d" d="M282.9,216.2a3,3,0,0,0,3.1.3,5,5,0,0,0,1.3-1c.1-.1.1-.1.2-.1h.2l1.8.7c.1.1.2.1.2.2s0,.1-.1.2a5.93,5.93,0,0,1-2.3,2.2,7.14,7.14,0,0,1-3.1.6,6.43,6.43,0,0,1-3.1-.7,5.56,5.56,0,0,1-2.2-2.1,6.11,6.11,0,0,1-.8-3,6.6,6.6,0,0,1,.8-3.2,5.81,5.81,0,0,1,2.2-2.2,6.11,6.11,0,0,1,3-.8,5.79,5.79,0,0,1,3,.7,5.3,5.3,0,0,1,2.1,2.1,7,7,0,0,1,.7,3.3c0,.2,0,.3-.1.4s-.1.1-.3.1h-7.1c-.2,0-.3.1-.3.4A2.59,2.59,0,0,0,282.9,216.2Zm3-4.2a.37.37,0,0,0,.3-.1c.1-.1.1-.1.1-.3a2.39,2.39,0,0,0-.5-1.4,1.75,1.75,0,0,0-1.4-.7,2,2,0,0,0-1.5.6,2.35,2.35,0,0,0-.6,1.7Z" transform="translate(-69.5 -144)"/><path class="d" d="M234.3,243.1a4.5,4.5,0,0,0-1.8-.3,3.58,3.58,0,0,0-1.9.4,1.07,1.07,0,0,0-.2,1.8,3.26,3.26,0,0,0,1.2.6l3.6,1a5.65,5.65,0,0,1,3,1.8,4.27,4.27,0,0,1,1,2.9,5.12,5.12,0,0,1-.8,2.8,4.52,4.52,0,0,1-2.4,1.8,10.06,10.06,0,0,1-3.6.6,10.84,10.84,0,0,1-4.2-.8,5.35,5.35,0,0,1-2.7-2.1.49.49,0,0,1-.1-.3c0-.1.1-.2.2-.4l2-1.4c.2-.1.3-.2.4-.2a.76.76,0,0,1,.4.2,4,4,0,0,0,1.6,1.4,5.71,5.71,0,0,0,4.2,0c.5-.3.8-.6.8-1.1,0-.7-.5-1.2-1.6-1.5l-3.3-.9a5.1,5.1,0,0,1-3-1.8,4.62,4.62,0,0,1-1.1-3,4.71,4.71,0,0,1,3.1-4.4,9,9,0,0,1,3.4-.7,9.89,9.89,0,0,1,3.5.6,5,5,0,0,1,2.4,1.7c.1.2.2.3.2.4a.22.22,0,0,1-.2.2l-2.2,1.6c-.1.1-.1.1-.2.1s-.2-.1-.4-.3C235.2,243.6,234.8,243.3,234.3,243.1Z" transform="translate(-69.5 -144)"/><path class="d" d="M243.9,256.4a3.57,3.57,0,0,1-2.6-.9,3.26,3.26,0,0,1-1-2.3,3.49,3.49,0,0,1,.8-2.2,5.75,5.75,0,0,1,2.3-1.5,9.56,9.56,0,0,1,3.5-.5h.4c.2,0,.4-.1.4-.3v-.4a1.25,1.25,0,0,0-.4-1.1,1.59,1.59,0,0,0-1.2-.4,2,2,0,0,0-1.1.3,2.36,2.36,0,0,0-.8.9.35.35,0,0,1-.3.3h-.2l-2.6-.5c-.1,0-.2-.1-.2-.3a.76.76,0,0,1,.1-.4c.7-1.7,2.5-2.6,5.4-2.6a5.89,5.89,0,0,1,3.9,1,3.29,3.29,0,0,1,1.2,2.7v7.7c0,.2,0,.4-.1.4s-.2.1-.4.1h-2.7a.52.52,0,0,1-.4-.2c-.1-.1-.1-.3-.2-.5v-.3a.22.22,0,0,0-.2-.2c-.1,0-.2.1-.4.2A5.78,5.78,0,0,1,243.9,256.4Zm3.7-5.5c-.1-.1-.1-.1-.3-.1h-.4a6.88,6.88,0,0,0-1.3.2,3.88,3.88,0,0,0-1.1.6,1.23,1.23,0,0,0-.5,1,1,1,0,0,0,.4.9,1.8,1.8,0,0,0,1.1.3,3,3,0,0,0,1.5-.5c.4-.4.6-.7.6-1V251C247.7,251,247.7,250.9,247.6,250.9Z" transform="translate(-69.5 -144)"/><path class="d" d="M253.5,256.1c-.1-.1-.1-.2-.1-.4V245c0-.3.1-.5.4-.5h3.1a.37.37,0,0,1,.4.4V246c0,.1,0,.2.1.2a.31.31,0,0,0,.2-.1,4.84,4.84,0,0,1,3.6-1.8,3.17,3.17,0,0,1,2.5,1,3.62,3.62,0,0,1,1,2.6v7.8a.53.53,0,0,1-.6.6h-2.8c-.2,0-.3,0-.4-.1s-.1-.2-.1-.4v-7.3a1,1,0,0,0-.4-.9,1.49,1.49,0,0,0-1-.3,2,2,0,0,0-1.1.3,3.82,3.82,0,0,0-.9.9v7.3c0,.2-.1.4-.2.4a.75.75,0,0,1-.5.1H254C253.7,256.2,253.6,256.2,253.5,256.1Z" transform="translate(-69.5 -144)"/><path class="d" d="M274.6,244.9a4.53,4.53,0,0,1,1.7,1.3,5.56,5.56,0,0,1,.9,1.7v.2c0,.2-.1.3-.4.3l-2.7.2H274c-.1,0-.2-.1-.2-.3a5.42,5.42,0,0,0-.6-1.1,1.25,1.25,0,0,0-1.1-.4,1.8,1.8,0,0,0-1.6.9,4.91,4.91,0,0,0-.6,2.7c0,2.4.8,3.6,2.3,3.6a2.12,2.12,0,0,0,1.4-.4,4.2,4.2,0,0,0,1-1.4.1.1,0,0,1,.1-.1h.3l1.8.4a.22.22,0,0,1,.2.2v.2a3.68,3.68,0,0,1-.8,1.5,6.06,6.06,0,0,1-1.7,1.4,5.26,5.26,0,0,1-2.6.6,6.5,6.5,0,0,1-3.1-.8,5.3,5.3,0,0,1-2.1-2.1,6.5,6.5,0,0,1-.8-3.1,6.9,6.9,0,0,1,.8-3.2,5.56,5.56,0,0,1,2.1-2.2,6.21,6.21,0,0,1,3.1-.8A6.66,6.66,0,0,1,274.6,244.9Z" transform="translate(-69.5 -144)"/><path class="d" d="M284.3,247.2a.27.27,0,0,0-.3.3v4.8a1.16,1.16,0,0,0,.4,1,1.92,1.92,0,0,0,1.2.3h1.1a.35.35,0,0,1,.4.4v1.6q0,.45-.6.6a19.09,19.09,0,0,1-2.8.2,3.73,3.73,0,0,1-2.5-.7,2.58,2.58,0,0,1-.9-2.1v-5.7a.37.37,0,0,0-.1-.3c-.1-.1-.1-.1-.2-.1h-1.2c-.3,0-.5-.1-.5-.4v-1.8a.37.37,0,0,1,.4-.4h1.4a.22.22,0,0,0,.2-.2l.3-3.3c0-.1,0-.3.1-.3s.1-.1.3-.1h2.8c.3,0,.4.1.4.4v3.3a.22.22,0,0,0,.2.2h2.2a.35.35,0,0,1,.4.4v1.9c0,.3-.2.4-.5.4h-2.2Z" transform="translate(-69.5 -144)"/><path class="d" d="M294.8,253.4a3.45,3.45,0,0,0,.9-.8v-7.4c0-.2.1-.4.2-.4a.75.75,0,0,1,.5-.1h2.8c.2,0,.3,0,.4.1s.1.2.1.4l-.1,10.7c0,.3-.1.4-.4.4h-3.1a.37.37,0,0,1-.4-.4v-1c0-.1,0-.1-.1-.2s-.1,0-.2.1a6.43,6.43,0,0,1-1.7,1.3,4.48,4.48,0,0,1-2,.4,3,3,0,0,1-2.4-1,3.57,3.57,0,0,1-.9-2.6v-7.7a.53.53,0,0,1,.6-.6h2.8c.2,0,.3,0,.4.1s.1.2.1.4v7.3a1.28,1.28,0,0,0,.4,1,1.53,1.53,0,0,0,1,.4A4.87,4.87,0,0,0,294.8,253.4Z" transform="translate(-69.5 -144)"/><path class="d" d="M304.7,256.4a3.57,3.57,0,0,1-2.6-.9,3.26,3.26,0,0,1-1-2.3,3.49,3.49,0,0,1,.8-2.2,5.75,5.75,0,0,1,2.3-1.5,9.56,9.56,0,0,1,3.5-.5h.4c.2,0,.4-.1.4-.3v-.4a1.25,1.25,0,0,0-.4-1.1,1.59,1.59,0,0,0-1.2-.4,2,2,0,0,0-1.1.3,2.36,2.36,0,0,0-.8.9.35.35,0,0,1-.3.3h-.2l-2.6-.5c-.1,0-.2-.1-.2-.3a.76.76,0,0,1,.1-.4c.7-1.7,2.5-2.6,5.4-2.6a5.89,5.89,0,0,1,3.9,1,3.29,3.29,0,0,1,1.2,2.7v7.7c0,.2,0,.4-.1.4s-.2.1-.4.1h-2.7a.52.52,0,0,1-.4-.2c-.1-.1-.1-.3-.2-.5v-.3a.22.22,0,0,0-.2-.2c-.1,0-.2.1-.4.2A5.3,5.3,0,0,1,304.7,256.4Zm3.8-5.5c-.1-.1-.1-.1-.3-.1h-.4a6.88,6.88,0,0,0-1.3.2,3.88,3.88,0,0,0-1.1.6,1.23,1.23,0,0,0-.5,1,1,1,0,0,0,.4.9,1.8,1.8,0,0,0,1.1.3,3,3,0,0,0,1.5-.5c.4-.4.6-.7.6-1v-1.4Z" transform="translate(-69.5 -144)"/><path class="d" d="M314.4,256.1c-.1-.1-.1-.2-.1-.4V245c0-.3.1-.5.4-.5h3a.35.35,0,0,1,.4.4v1.3a.22.22,0,0,0,.2.2c.1,0,.1,0,.2-.1a5,5,0,0,1,1.5-1.4,3.19,3.19,0,0,1,1.7-.6c.5,0,.8.1.8.4v2.9c0,.3-.1.4-.4.3a11.13,11.13,0,0,0-1.7-.2,3,3,0,0,0-1.5.5,1.31,1.31,0,0,0-.7,1.2v6.1c0,.2-.1.4-.2.4a.75.75,0,0,1-.5.1h-2.7C314.6,256.2,314.4,256.2,314.4,256.1Z" transform="translate(-69.5 -144)"/><path class="d" d="M324.2,259.8c-.2-.1-.3-.2-.3-.4v-2c0-.3.2-.4.6-.4H326a1.5,1.5,0,0,0,1.1-.4c.3-.3.5-.5.5-.9v-.3L323.3,245v-.2a.35.35,0,0,1,.4-.4H327a.37.37,0,0,1,.3.1c.1.1.2.2.2.3l2.1,5.9a.22.22,0,0,0,.2.2c.1,0,.1-.1.2-.2l2.1-5.9a.51.51,0,0,1,.5-.4h2.2a.35.35,0,0,1,.4.4v.2l-4.4,10.7a9.22,9.22,0,0,1-1.4,2.5,4.07,4.07,0,0,1-1.7,1.2,8.8,8.8,0,0,1-2.6.3A3.87,3.87,0,0,1,324.2,259.8Z" transform="translate(-69.5 -144)"/><path class="d" d="M109.3,183.9l-1.1-3.1a9.29,9.29,0,0,0,1.3-.4c.5-.1.9-.3,1.4-.4a5.12,5.12,0,0,1-1.2-1.3,3.09,3.09,0,0,1-.5-1.8,4.28,4.28,0,0,1,.6-2.2,4.63,4.63,0,0,1,1.6-1.5,4.19,4.19,0,0,1,2.2-.5,5.28,5.28,0,0,1,1.3.1c.4.1.8.1,1.2.2l-.5,3.1c-.3-.1-.5-.1-.8-.2s-.5-.1-.7-.1a1.5,1.5,0,0,0-1.1.4,1.16,1.16,0,0,0-.4,1,1.69,1.69,0,0,0,.3,1,2.33,2.33,0,0,0,1.1.7,7.84,7.84,0,0,1,1.4-.5c.5-.2.9-.4,1.4-.6l1.2,3.1c-.8.3-1.8.7-2.8,1.1s-2.1.7-3.1,1.1S110.2,183.7,109.3,183.9Z" transform="translate(-69.5 -144)"/><path class="d" d="M126,182.7a9.87,9.87,0,0,1-3.3-.4,2.67,2.67,0,0,1-1.6-1.3,5.21,5.21,0,0,1-.5-2.3l-.5-12.5h3.4L124,177a6.27,6.27,0,0,0,.2,1.6,1.21,1.21,0,0,0,.7.7,4.64,4.64,0,0,0,1.4.2,2,2,0,0,1,1.4.5,1.59,1.59,0,0,1,.4,1.2,1.66,1.66,0,0,1-.5,1.2A3.51,3.51,0,0,1,126,182.7Z" transform="translate(-69.5 -144)"/><path class="d" d="M126,182.7l.2-3.3h3.1c.8,0,1.4-.1,1.8-.1a6.21,6.21,0,0,0,1-.3,1.39,1.39,0,0,0,.7-.8,5.82,5.82,0,0,1-1.9.3,4.55,4.55,0,0,1-2.7-.8,3,3,0,0,1-1-2.6,5.82,5.82,0,0,1,.3-1.9,4.25,4.25,0,0,1,1-1.7,5.66,5.66,0,0,1,1.5-1.2,4.11,4.11,0,0,1,4.4.3,5.59,5.59,0,0,1,1.6,2.3,9,9,0,0,1,.5,3.4,8.53,8.53,0,0,1-.5,3,4.72,4.72,0,0,1-1.4,1.9,8.48,8.48,0,0,1-1.9,1,14.56,14.56,0,0,1-2.7.5Zm4-15a1.72,1.72,0,1,1,1.1-.5A1.43,1.43,0,0,1,130,167.7Zm.6,6.8c0,.7.4,1,1.3,1h.6a2.54,2.54,0,0,0,.7-.2,4.34,4.34,0,0,0-.5-1.9,1.07,1.07,0,0,0-.9-.6,1.38,1.38,0,0,0-.9.5A1.56,1.56,0,0,0,130.6,174.5Zm3.3-6.8a1.72,1.72,0,1,1,1.1-.5A1.61,1.61,0,0,1,133.9,167.7Z" transform="translate(-69.5 -144)"/><path class="d" d="M142.5,179.2a3,3,0,0,0,1.6-.3,1,1,0,0,0,.4-.9,4.94,4.94,0,0,0-.8-2.2,28.6,28.6,0,0,0-1.9-3l3-2a19.29,19.29,0,0,1,2.2,3.8,12.51,12.51,0,0,1,1,2.9,2.2,2.2,0,0,0,2.4,1.9,2,2,0,0,1,1.4.5,1.59,1.59,0,0,1,.4,1.2,1.66,1.66,0,0,1-.5,1.2,2.07,2.07,0,0,1-1.5.5,5.82,5.82,0,0,1-1.9-.3,3,3,0,0,1-1.4-1.1,4,4,0,0,1-1.7,1,6.57,6.57,0,0,1-2.5.4,11.21,11.21,0,0,1-2.4-.3,7.26,7.26,0,0,1-2.2-.9l1.2-3.1a8.8,8.8,0,0,0,1.5.5A6.24,6.24,0,0,0,142.5,179.2Z" transform="translate(-69.5 -144)"/><path class="d" d="M162.1,183a21,21,0,0,1-4-.3,7.88,7.88,0,0,1-2.3-.7,4.73,4.73,0,0,1-1.3-1.1,3.38,3.38,0,0,1-1.9,1.5,7.8,7.8,0,0,1-2.2.3l.2-3.4a2.51,2.51,0,0,0,1-.2,2.17,2.17,0,0,0,.6-.7,3.92,3.92,0,0,0,.4-1.4c.1-.6.3-1.3.5-2.1l3.1.8c-.2.6-.3,1.1-.4,1.5a2.81,2.81,0,0,0-.1.8,1.17,1.17,0,0,0,1.2,1.3,23,23,0,0,1,2.8-3.4,12.66,12.66,0,0,1,3.3-2.4,7.21,7.21,0,0,1,3.4-.9,5.26,5.26,0,0,1,2.6.6,4,4,0,0,1,1.7,1.7,4.75,4.75,0,0,1,.6,2.4,5.29,5.29,0,0,1-.9,3,5.68,5.68,0,0,1-3,2A15.07,15.07,0,0,1,162.1,183Zm4.2-6.9a4.07,4.07,0,0,0-1.8.5,10.72,10.72,0,0,0-1.9,1.3,9.76,9.76,0,0,0-1.7,1.8h.3a41.9,41.9,0,0,0,4.2-.2,4.44,4.44,0,0,0,2-.7,1.38,1.38,0,0,0,.6-1.1,1.5,1.5,0,0,0-.4-1.1C167.4,176.2,166.9,176.1,166.3,176.1Z" transform="translate(-69.5 -144)"/><path class="d" d="M181.1,170.6a6.15,6.15,0,0,0-.1-1.3c-.1-.5-.1-.9-.2-1.4s-.1-.8-.2-1.2l3.3-.4c.1.3.1.7.2,1.1s.1,1,.2,1.5.1,1,.1,1.5a8.93,8.93,0,0,1-1,4.4,8.49,8.49,0,0,1,1.8,2.5,4.64,4.64,0,0,1,.4,1.9,3.17,3.17,0,0,1-.4,1.6,3,3,0,0,1-1.2,1.3,4.9,4.9,0,0,1-2.3.5H175v-3.5a24.44,24.44,0,0,0,4.3-3.7c-.8-.6-1.7-1.2-2.7-1.9a34.47,34.47,0,0,0-3.2-2l1.7-2.8q1.8,1,3.3,2.1c1,.6,1.8,1.3,2.5,1.8A12.31,12.31,0,0,0,181.1,170.6Zm-2.3,8.9h1.6a4.87,4.87,0,0,0,1.5-.2.68.68,0,0,0,.4-.6c0-.3-.3-.7-.9-1.3-.4.4-.8.7-1.2,1.1A17,17,0,0,1,178.8,179.5Z" transform="translate(-69.5 -144)"/><path class="d" d="M188.5,182.6l-.5-16.4h3.4l.5,16.4Z" transform="translate(-69.5 -144)"/><path class="d" d="M130,228.3c-.4-1.6-.7-2.9-.9-4.1a18.9,18.9,0,0,1-.3-2.9,7.22,7.22,0,0,1,.5-2.7,4.74,4.74,0,0,1,1.4-1.7,6.92,6.92,0,0,1,1.9-1,7.61,7.61,0,0,1,2.1-.3,6.48,6.48,0,0,1,2,.2,3.17,3.17,0,0,0-.6-2,1.9,1.9,0,0,0-1.5-.8,1.92,1.92,0,0,0-1.2.4,4,4,0,0,0-1,1.2l-2.6-1.4a5.52,5.52,0,0,1,1.4-2.1A5.83,5.83,0,0,1,133,210a6.46,6.46,0,0,1,1.9-.4,6,6,0,0,1,2.4.5,4.39,4.39,0,0,1,1.6,1.4,6.26,6.26,0,0,1,1,2,7.61,7.61,0,0,1,.3,2.1,7.8,7.8,0,0,1-.3,2.2c-.2.7-.4,1.2-.5,1.5a15.46,15.46,0,0,0-3.9-.6,4.4,4.4,0,0,0-2.5.6,2.34,2.34,0,0,0-.9,2.1,12.13,12.13,0,0,0,.1,1.8,15.53,15.53,0,0,0,.4,2.1c.2.7.3,1.5.5,2.2Z" transform="translate(-69.5 -144)"/><path class="d" d="M144.2,219.7a4.87,4.87,0,0,1-1.2-.1,3.22,3.22,0,0,0-.8-.1l.4-3.5a15.06,15.06,0,0,0,3,.1,9.92,9.92,0,0,0,2.6-.6,26.13,26.13,0,0,0-2.4-3c-1-1.2-2.3-2.5-3.7-3.9l2.2-2.3c1.6,1.6,2.9,2.9,3.9,4a20.14,20.14,0,0,1,2.2,2.9,8.6,8.6,0,0,0,.4-2.4l-.3-7.5H154l.5,10.8a2.81,2.81,0,0,0,.3,1.5,1.58,1.58,0,0,0,.7.7,4.44,4.44,0,0,0,1.3.2,1.59,1.59,0,0,1,1.2.4,1.69,1.69,0,0,1,0,2.4,2,2,0,0,1-1.4.5,6.85,6.85,0,0,1-3.6-.8,3.92,3.92,0,0,1-1.7-2.1,4.63,4.63,0,0,1-1.5,1.6,6.63,6.63,0,0,1-1.9.9,16.25,16.25,0,0,1-1.9.4A12.14,12.14,0,0,0,144.2,219.7Z" transform="translate(-69.5 -144)"/><path class="d" d="M156.4,219.7l.2-3.4a4.12,4.12,0,0,0,1.2-.1,1.06,1.06,0,0,0,.7-.6,5.89,5.89,0,0,0,.5-1.3,24.22,24.22,0,0,0,.5-2.4l3.2.6c-.1.3-.1.7-.2,1.2a6.15,6.15,0,0,0-.1,1.3,1.37,1.37,0,0,0,.4,1.1,2.23,2.23,0,0,0,1.5.4,3.08,3.08,0,0,0,1-.1,1.34,1.34,0,0,0,.7-.6,3.17,3.17,0,0,0,.5-1.4c.1-.6.3-1.5.4-2.5l3.3.5c-.1.5-.2,1.1-.3,1.7a7.17,7.17,0,0,0-.1,1.3.91.91,0,0,0,.4.8,3.17,3.17,0,0,0,1.7.3,2.08,2.08,0,0,0,1.5-.4,1.81,1.81,0,0,0,.4-1.4,10.28,10.28,0,0,0-.1-1.7,23.2,23.2,0,0,0-.2-2.4l3.2-.2a21.26,21.26,0,0,0,.4,3.2,7.39,7.39,0,0,0,.5,1.9,2,2,0,0,0,.9.9,3.42,3.42,0,0,0,1.5.2,2,2,0,0,1,1.4.5,1.59,1.59,0,0,1,.4,1.2,1.66,1.66,0,0,1-.5,1.2,2.07,2.07,0,0,1-1.5.5,7.85,7.85,0,0,1-1.4-.2,3.4,3.4,0,0,1-1.5-.7,3.64,3.64,0,0,1-1.2-1.5,3,3,0,0,1-1.4,1.8,6.12,6.12,0,0,1-4.6.1,2.74,2.74,0,0,1-1.3-1.3,2.71,2.71,0,0,1-1,1.1,5,5,0,0,1-1.3.5,9.72,9.72,0,0,1-1.8.1,6.28,6.28,0,0,1-1.9-.3,2.67,2.67,0,0,1-1.5-1.3,3.36,3.36,0,0,1-2,1.3C158.1,219.6,157.3,219.7,156.4,219.7Z" transform="translate(-69.5 -144)"/><path class="d" d="M179.8,219.7l.2-3.4a4.64,4.64,0,0,0,1.4-.2.79.79,0,0,0,.5-.8,5.29,5.29,0,0,0,0-1.8l-.4-10.4h3.4l.5,10.7a17.72,17.72,0,0,1-.1,2.4,3.59,3.59,0,0,1-.7,1.8,3.72,3.72,0,0,1-1.7,1.2A6.94,6.94,0,0,1,179.8,219.7Z" transform="translate(-69.5 -144)"/><path class="d" d="M188.3,219.6l-.5-16.4h3.4l.5,16.4Z" transform="translate(-69.5 -144)"/><path class="d" d="M80.1,255.9a15,15,0,0,1,.2-2,29,29,0,0,1,.9-2.8l3.1,1.1c-.2.6-.4,1.2-.6,1.7a3.89,3.89,0,0,0-.2,1.5,2.46,2.46,0,0,0,1,2.2,4.77,4.77,0,0,0,2.9.8,6.33,6.33,0,0,0,2.6-.5,2.91,2.91,0,0,0,1.3-1.4,4.48,4.48,0,0,0,.4-2,7.47,7.47,0,0,0-.3-2c-.2-.7-.4-1.7-.7-2.7l3.3-.9c.2.8.4,1.5.5,2a5.31,5.31,0,0,0,.3,1.1,1.74,1.74,0,0,0,1,1.3,4.7,4.7,0,0,0,1.9.3,2,2,0,0,1,1.4.5,1.59,1.59,0,0,1,.4,1.2,1.66,1.66,0,0,1-.5,1.2,2.07,2.07,0,0,1-1.5.5,5.85,5.85,0,0,1-1.3-.2,3.38,3.38,0,0,1-1.2-.6,6.13,6.13,0,0,1-2.5,4.2,8.44,8.44,0,0,1-5.2,1.5,10.46,10.46,0,0,1-3.6-.6,5.08,5.08,0,0,1-2.6-1.9A6.29,6.29,0,0,1,80.1,255.9Zm7.5-8.9a1.7,1.7,0,1,1,1.2-2.9,1.85,1.85,0,0,1,.5,1.2,1.66,1.66,0,0,1-.5,1.2A1.84,1.84,0,0,1,87.6,247Z" transform="translate(-69.5 -144)"/><path class="d" d="M97.5,256.7l.2-3.4a1.49,1.49,0,0,0,1-.3,8.18,8.18,0,0,0,.8-.9,11.42,11.42,0,0,0,.9-1.6,9.51,9.51,0,0,1,1.5-2.1,4.37,4.37,0,0,1,1.5-1,4,4,0,0,1,1.5-.3,4.14,4.14,0,0,1,1.9.5,4.43,4.43,0,0,1,1.5,1.2,5.85,5.85,0,0,1,1,1.7,6.46,6.46,0,0,1,.4,1.9,5.09,5.09,0,0,1-.5,2.2,4,4,0,0,1-1.4,1.5,3.7,3.7,0,0,1-2.1.6,8.08,8.08,0,0,1-2-.3,6.84,6.84,0,0,1-2.3-1.1,3.27,3.27,0,0,1-1.5,1.1A8.75,8.75,0,0,1,97.5,256.7Zm7.3-6.2a1.39,1.39,0,0,0-1,.5,9.13,9.13,0,0,0-1,1.6,11.22,11.22,0,0,0,1.3.5,3.75,3.75,0,0,0,1,.1,2,2,0,0,0,.9-.2.71.71,0,0,0,.3-.6,2.92,2.92,0,0,0-.2-.9,1.34,1.34,0,0,0-.6-.7C105.2,250.6,105.1,250.5,104.8,250.5Z" transform="translate(-69.5 -144)"/><path class="d" d="M116.9,241.7a5,5,0,0,1-1.2-.2,3.13,3.13,0,0,1-1-.5,3.09,3.09,0,0,0-.8-.2,1.45,1.45,0,0,0-.7.2c-.2.1-.4.3-.7.5l-1.1-1.1a3.41,3.41,0,0,1,2.5-1.5,3,3,0,0,1,1,.2c.3.1.6.3.9.4a3.55,3.55,0,0,0,1,.2,1.7,1.7,0,0,0,.7-.1,2.51,2.51,0,0,0,.7-.4l.8,1.3a3.78,3.78,0,0,1-1.3.9A.83.83,0,0,1,116.9,241.7Zm2.3,2.9a6.15,6.15,0,0,0-.1-1.3c-.1-.5-.1-.9-.2-1.4s-.1-.8-.2-1.2l3.3-.4c.1.3.1.7.2,1.1s.1,1,.2,1.5.1,1,.1,1.5a8.93,8.93,0,0,1-1,4.4,8.49,8.49,0,0,1,1.8,2.5,4.64,4.64,0,0,1,.4,1.9,3.17,3.17,0,0,1-.4,1.6,3,3,0,0,1-1.2,1.3,4.62,4.62,0,0,1-2.3.5h-6.7v-3.5a24.44,24.44,0,0,0,4.3-3.7c-.8-.6-1.7-1.2-2.7-1.9a34.47,34.47,0,0,0-3.2-2l1.7-2.8q1.8,1,3.3,2.1c1,.6,1.8,1.3,2.5,1.8A12.31,12.31,0,0,0,119.2,244.6Zm-2.2,8.9h1.6a4.87,4.87,0,0,0,1.5-.2.68.68,0,0,0,.4-.6c0-.3-.3-.7-.9-1.3-.4.4-.8.7-1.2,1.1A17,17,0,0,1,117,253.5Z" transform="translate(-69.5 -144)"/><path class="d" d="M127.9,256.6l-.5-16.4h3.4l.5,16.4Z" transform="translate(-69.5 -144)"/><path class="d" d="M139,255.6l1.2-3.1a8.8,8.8,0,0,0,1.5.5,7.72,7.72,0,0,0,1.5.2c1.3,0,2-.4,2-1.3a4.4,4.4,0,0,0-.2-1,8,8,0,0,0-.8-1.7,27.28,27.28,0,0,0-1.7-2.6l3-2a38.43,38.43,0,0,1,2.6,4.5,7.85,7.85,0,0,1,.8,3.3,4,4,0,0,1-1.4,3.1,6.08,6.08,0,0,1-4.1,1.2,11.21,11.21,0,0,1-2.4-.3A5.24,5.24,0,0,1,139,255.6Zm4.3-12.4a1.7,1.7,0,1,1,1.2-2.9,1.85,1.85,0,0,1,.5,1.2,1.71,1.71,0,0,1-1.7,1.7Z" transform="translate(-69.5 -144)"/><path class="d" d="M153.1,256.7a4.87,4.87,0,0,1-1.2-.1,3.22,3.22,0,0,0-.8-.1l.4-3.5a15.06,15.06,0,0,0,3,.1,9.92,9.92,0,0,0,2.6-.6,26.13,26.13,0,0,0-2.4-3c-1-1.2-2.3-2.5-3.7-3.9l2.2-2.3c1.6,1.6,2.9,2.9,3.9,4a20.14,20.14,0,0,1,2.2,2.9,8.6,8.6,0,0,0,.4-2.4l-.3-7.5h3.5l.5,10.8a2.81,2.81,0,0,0,.3,1.5,1.58,1.58,0,0,0,.7.7,4.44,4.44,0,0,0,1.3.2,1.59,1.59,0,0,1,1.2.4,1.69,1.69,0,0,1,0,2.4,2,2,0,0,1-1.4.5,6.85,6.85,0,0,1-3.6-.8,3.92,3.92,0,0,1-1.7-2.1,4.63,4.63,0,0,1-1.5,1.6,6.63,6.63,0,0,1-1.9.9,16.25,16.25,0,0,1-1.9.4A13.57,13.57,0,0,0,153.1,256.7Z" transform="translate(-69.5 -144)"/><path class="d" d="M165.2,256.7l.2-3.4a3,3,0,0,0,1-.2,2.85,2.85,0,0,0,.7-.8c.2-.4.6-.9,1-1.7a8.41,8.41,0,0,1,2.3-2.8,4.26,4.26,0,0,1,2.5-.9,3.41,3.41,0,0,1,2.4.9,9,9,0,0,1,1.8,2.8,6.17,6.17,0,0,0,1.3,2,2,2,0,0,0,1.5.6,2,2,0,0,1,1.4.5,1.59,1.59,0,0,1,.4,1.2,1.66,1.66,0,0,1-.5,1.2,2.07,2.07,0,0,1-1.5.5,4.22,4.22,0,0,1-3.2-1.2,3.84,3.84,0,0,1-1.1,1.1,2.93,2.93,0,0,1-1.6.4,5.85,5.85,0,0,1-2.2-.5,5.65,5.65,0,0,1-2.1-1.7,4.25,4.25,0,0,1-1.7,1.6A7.83,7.83,0,0,1,165.2,256.7Zm5.6-4.7a6.79,6.79,0,0,0,1.2,1.2,2.4,2.4,0,0,0,1.5.6.67.67,0,0,0,.7-.4,1.39,1.39,0,0,0,0-.9,11.88,11.88,0,0,0-.8-1.6,1.21,1.21,0,0,0-.9-.6C171.9,250.3,171.4,250.9,170.8,252Z" transform="translate(-69.5 -144)"/><path class="d" d="M179.6,256.7l.2-3.4a4.64,4.64,0,0,0,1.4-.2.79.79,0,0,0,.5-.8,5.29,5.29,0,0,0,0-1.8l-.4-10.4h3.4l.5,10.7a17.72,17.72,0,0,1-.1,2.4,3.59,3.59,0,0,1-.7,1.8,3.72,3.72,0,0,1-1.7,1.2A6.94,6.94,0,0,1,179.6,256.7Z" transform="translate(-69.5 -144)"/><path class="d" d="M188.2,256.6l-.5-16.4h3.4l.5,16.4Z" transform="translate(-69.5 -144)"/></svg>